<svg width="16" height="15" viewBox="0 0 16 15" fill="none" xmlns="http://www.w3.org/2000/svg">
<path d="M11.9512 0C13.024 0 14.056 0.441667 14.8152 1.23417C15.5752 2.025 16 3.09167 16 4.20833V10.7917C16 13.1167 14.184 15 11.9512 15H4.048C1.8152 15 0 13.1167 0 10.7917V4.20833C0 1.88333 1.8072 0 4.048 0H11.9512ZM12.856 4.33333C12.688 4.32417 12.528 4.38333 12.4072 4.5L8.8 7.5C8.336 7.90083 7.6712 7.90083 7.2 7.5L3.6 4.5C3.3512 4.30833 3.0072 4.33333 2.8 4.55833C2.584 4.78333 2.56 5.14167 2.7432 5.39167L2.848 5.5L6.488 8.45833C6.936 8.825 7.4792 9.025 8.048 9.025C8.6152 9.025 9.168 8.825 9.6152 8.45833L13.224 5.45L13.288 5.38333C13.4792 5.14167 13.4792 4.79167 13.2792 4.55C13.168 4.42583 13.0152 4.35 12.856 4.33333Z" fill="black"/>
</svg>
