<svg width="346" height="54" viewBox="0 0 346 54" fill="none" xmlns="http://www.w3.org/2000/svg">
<rect width="346" height="54" rx="15" fill="#FAFAFA"/>
<rect width="346" height="54" rx="15" fill="#FAFAFA"/>
<path d="M326.736 21.1512C326.97 20.9496 327.337 20.9496 327.564 21.1512C327.798 21.3527 327.798 21.6863 327.564 21.8878L326.143 23.1526C327.275 24.0699 328.235 25.3069 328.953 26.7941C329.016 26.9262 329.016 27.0791 328.953 27.2041C327.283 30.665 324.309 32.7359 320.999 32.7359H320.991C319.485 32.7359 318.041 32.2981 316.768 31.4989L315.254 32.8471C315.137 32.9514 314.988 33 314.84 33C314.692 33 314.536 32.9514 314.426 32.8471C314.231 32.6734 314.2 32.3954 314.356 32.1939L314.38 32.1661L325.924 21.8878C325.94 21.8739 325.956 21.86 325.964 21.8461C325.979 21.8322 325.995 21.8183 326.003 21.8044L326.736 21.1512ZM321.001 21.272C322.117 21.272 323.202 21.5083 324.201 21.9531L321.594 24.2742C321.407 24.2464 321.204 24.2255 321.001 24.2255C319.276 24.2255 317.879 25.4695 317.879 27.0053C317.879 27.186 317.902 27.3667 317.933 27.5335L315.045 30.1048C314.265 29.2986 313.585 28.3257 313.047 27.2069C312.984 27.0818 312.984 26.9289 313.047 26.7968C314.717 23.336 317.691 21.272 320.993 21.272H321.001ZM323.575 25.439L322.724 26.1965C322.865 26.4327 322.943 26.7107 322.943 27.0026C322.943 27.9547 322.068 28.733 320.999 28.733C320.671 28.733 320.359 28.6635 320.093 28.5384L319.243 29.2959C319.742 29.5948 320.351 29.7754 320.999 29.7754C322.716 29.7754 324.114 28.5315 324.114 27.0026C324.114 26.4258 323.911 25.8837 323.575 25.439Z" fill="black"/>
<path d="M32.9874 19C35.5146 19 37.5481 20.9318 37.5481 23.3168V24.5435C38.9665 24.9736 40 26.2209 40 27.7107V31.6602C40 33.5046 38.4259 35 36.4854 35H29.5155C27.5741 35 26 33.5046 26 31.6602V27.7107C26 26.2209 27.0343 24.9736 28.4519 24.5435V23.3168C28.4603 20.9318 30.4937 19 32.9874 19ZM32.9958 28.1074C32.5941 28.1074 32.2678 28.4175 32.2678 28.7991V30.5639C32.2678 30.9535 32.5941 31.2635 32.9958 31.2635C33.4059 31.2635 33.7322 30.9535 33.7322 30.5639V28.7991C33.7322 28.4175 33.4059 28.1074 32.9958 28.1074ZM33.0042 20.3912C31.3054 20.3912 29.9247 21.695 29.9163 23.3009V24.371H36.0837V23.3168C36.0837 21.703 34.7029 20.3912 33.0042 20.3912Z" fill="black"/>
<circle cx="62.5" cy="27.5" r="3.5" fill="black"/>
<circle cx="70.5" cy="27.5" r="3.5" fill="black"/>
<circle cx="78.5" cy="27.5" r="3.5" fill="black"/>
<circle cx="86.5" cy="27.5" r="3.5" fill="black"/>
<circle cx="102.5" cy="27.5" r="3.5" fill="black"/>
<circle cx="110.5" cy="27.5" r="3.5" fill="black"/>
<circle cx="94.5" cy="27.5" r="3.5" fill="black"/>
<circle cx="54.5" cy="27.5" r="3.5" fill="black"/>
<rect width="346" height="54" rx="15" fill="#FAFAFA"/>
<rect width="346" height="54" rx="15" fill="#FAFAFA"/>
<path d="M326.736 21.1512C326.97 20.9496 327.337 20.9496 327.564 21.1512C327.798 21.3527 327.798 21.6863 327.564 21.8878L326.143 23.1526C327.275 24.0699 328.235 25.3069 328.953 26.7941C329.016 26.9262 329.016 27.0791 328.953 27.2041C327.283 30.665 324.309 32.7359 320.999 32.7359H320.991C319.485 32.7359 318.041 32.2981 316.768 31.4989L315.254 32.8471C315.137 32.9514 314.988 33 314.84 33C314.692 33 314.536 32.9514 314.426 32.8471C314.231 32.6734 314.2 32.3954 314.356 32.1939L314.38 32.1661L325.924 21.8878C325.94 21.8739 325.956 21.86 325.964 21.8461C325.979 21.8322 325.995 21.8183 326.003 21.8044L326.736 21.1512ZM321.001 21.272C322.117 21.272 323.202 21.5083 324.201 21.9531L321.594 24.2742C321.407 24.2464 321.204 24.2255 321.001 24.2255C319.276 24.2255 317.879 25.4695 317.879 27.0053C317.879 27.186 317.902 27.3667 317.933 27.5335L315.045 30.1048C314.265 29.2986 313.585 28.3257 313.047 27.2069C312.984 27.0818 312.984 26.9289 313.047 26.7968C314.717 23.336 317.691 21.272 320.993 21.272H321.001ZM323.575 25.439L322.724 26.1965C322.865 26.4327 322.943 26.7107 322.943 27.0026C322.943 27.9547 322.068 28.733 320.999 28.733C320.671 28.733 320.359 28.6635 320.093 28.5384L319.243 29.2959C319.742 29.5948 320.351 29.7754 320.999 29.7754C322.716 29.7754 324.114 28.5315 324.114 27.0026C324.114 26.4258 323.911 25.8837 323.575 25.439Z" fill="black"/>
<path d="M32.9874 19C35.5146 19 37.5481 20.9318 37.5481 23.3168V24.5435C38.9665 24.9736 40 26.2209 40 27.7107V31.6602C40 33.5046 38.4259 35 36.4854 35H29.5155C27.5741 35 26 33.5046 26 31.6602V27.7107C26 26.2209 27.0343 24.9736 28.4519 24.5435V23.3168C28.4603 20.9318 30.4937 19 32.9874 19ZM32.9958 28.1074C32.5941 28.1074 32.2678 28.4175 32.2678 28.7991V30.5639C32.2678 30.9535 32.5941 31.2635 32.9958 31.2635C33.4059 31.2635 33.7322 30.9535 33.7322 30.5639V28.7991C33.7322 28.4175 33.4059 28.1074 32.9958 28.1074ZM33.0042 20.3912C31.3054 20.3912 29.9247 21.695 29.9163 23.3009V24.371H36.0837V23.3168C36.0837 21.703 34.7029 20.3912 33.0042 20.3912Z" fill="black"/>
<circle cx="62.5" cy="27.5" r="3.5" fill="black"/>
<circle cx="70.5" cy="27.5" r="3.5" fill="black"/>
<circle cx="78.5" cy="27.5" r="3.5" fill="black"/>
<circle cx="86.5" cy="27.5" r="3.5" fill="black"/>
<circle cx="102.5" cy="27.5" r="3.5" fill="black"/>
<circle cx="110.5" cy="27.5" r="3.5" fill="black"/>
<circle cx="94.5" cy="27.5" r="3.5" fill="black"/>
<circle cx="54.5" cy="27.5" r="3.5" fill="black"/>
</svg>
