<svg width="23" height="23" viewBox="0 0 23 23" fill="none" xmlns="http://www.w3.org/2000/svg">
<g clip-path="url(#clip0_1_724)">
<path d="M22.4626 11.7152C22.4626 10.7729 22.3861 10.0852 22.2206 9.37216H11.4605V13.6252H17.7765C17.6492 14.6822 16.9615 16.2739 15.4334 17.3435L15.412 17.4859L18.8142 20.1215L19.0499 20.145C21.2146 18.1458 22.4626 15.2042 22.4626 11.7152Z" fill="#4285F4"/>
<path d="M11.4605 22.921C14.5548 22.921 17.1525 21.9022 19.0499 20.145L15.4334 17.3435C14.4657 18.0184 13.1668 18.4895 11.4605 18.4895C8.42985 18.4895 5.85763 16.4904 4.9407 13.7271L4.8063 13.7386L1.26869 16.4763L1.22243 16.605C3.10702 20.3487 6.97813 22.921 11.4605 22.921Z" fill="#34A853"/>
<path d="M4.9407 13.7271C4.69876 13.0141 4.55874 12.25 4.55874 11.4605C4.55874 10.671 4.69876 9.90695 4.92797 9.19386L4.92156 9.04199L1.33962 6.26022L1.22242 6.31597C0.445691 7.86952 0 9.6141 0 11.4605C0 13.3069 0.445691 15.0514 1.22242 16.605L4.9407 13.7271Z" fill="#FBBC05"/>
<path d="M11.4605 4.43136C13.6125 4.43136 15.0641 5.36093 15.8919 6.13775L19.1263 2.97973C17.1398 1.13332 14.5548 0 11.4605 0C6.97813 0 3.10702 2.57223 1.22243 6.31596L4.92797 9.19386C5.85763 6.43061 8.42985 4.43136 11.4605 4.43136Z" fill="#EB4335"/>
</g>
<defs>
<clipPath id="clip0_1_724">
<rect width="23" height="23" fill="white"/>
</clipPath>
</defs>
</svg>
