<svg width="28" height="26" viewBox="0 0 28 26" fill="none" xmlns="http://www.w3.org/2000/svg">
<g clip-path="url(#clip0_0_85)">
<path d="M13.1273 23.3611C14.0247 23.3611 14.7523 22.6336 14.7523 21.7361C14.7523 20.8387 14.0247 20.1111 13.1273 20.1111C12.2298 20.1111 11.5023 20.8387 11.5023 21.7361C11.5023 22.6336 12.2298 23.3611 13.1273 23.3611Z" fill="#4D4867"/>
<path d="M23 23.3611C23.8975 23.3611 24.625 22.6336 24.625 21.7361C24.625 20.8387 23.8975 20.1111 23 20.1111C22.1025 20.1111 21.375 20.8387 21.375 21.7361C21.375 22.6336 22.1025 23.3611 23 23.3611Z" fill="#4D4867"/>
<path d="M27.3911 4.12834C27.3239 4.04549 27.2392 3.97856 27.143 3.93235C27.0469 3.88615 26.9417 3.86182 26.835 3.86112H11.7983L12.2678 5.30556H25.8889L23.9606 13.9722H13.1272L9.82667 3.52167C9.79097 3.41078 9.72897 3.31017 9.64597 3.22843C9.56297 3.14668 9.46142 3.08623 9.35 3.05223L6.38889 2.14223C6.29784 2.11425 6.20217 2.10448 6.10734 2.11347C6.01252 2.12246 5.92039 2.15005 5.83622 2.19465C5.66624 2.28472 5.539 2.43862 5.4825 2.6225C5.42599 2.80639 5.44485 3.00519 5.53492 3.17517C5.62499 3.34515 5.77889 3.47239 5.96278 3.52889L8.55555 4.32334L11.8706 14.7956L10.6861 15.7633L10.5922 15.8572C10.2992 16.1949 10.1332 16.6241 10.1226 17.071C10.1121 17.5179 10.2577 17.9545 10.5344 18.3056C10.7313 18.5449 10.9814 18.7349 11.2649 18.8604C11.5483 18.9858 11.8571 19.0431 12.1667 19.0278H24.2206C24.4121 19.0278 24.5958 18.9517 24.7312 18.8162C24.8667 18.6808 24.9428 18.4971 24.9428 18.3056C24.9428 18.114 24.8667 17.9303 24.7312 17.7949C24.5958 17.6594 24.4121 17.5833 24.2206 17.5833H12.0511C11.9679 17.5805 11.8869 17.5563 11.8159 17.513C11.7448 17.4697 11.6861 17.4088 11.6454 17.3362C11.6048 17.2636 11.5835 17.1817 11.5837 17.0985C11.584 17.0153 11.6056 16.9335 11.6467 16.8611L13.3872 15.4167H24.5383C24.7053 15.4208 24.8685 15.3668 25.0002 15.2641C25.1319 15.1614 25.2239 15.0163 25.2606 14.8533L27.55 4.74223C27.572 4.63456 27.5691 4.52329 27.5415 4.41691C27.514 4.31053 27.4626 4.21183 27.3911 4.12834Z" fill="#4D4867"/>
</g>
<defs>
<clipPath id="clip0_0_85">
<rect width="28" height="26" fill="white"/>
</clipPath>
</defs>
</svg>
