<svg width="141" height="125" viewBox="0 0 141 125" fill="none" xmlns="http://www.w3.org/2000/svg">
<g clip-path="url(#clip0_1_708)">
<path d="M62.9743 79.2494C63.2928 79.2009 63.6169 79.2009 63.9354 79.2494C65.7028 79.411 67.4783 79.4514 69.2539 79.4595C72.357 79.4595 75.4601 79.3544 78.5469 79.0877C85.1186 78.5296 91.6476 77.5551 98.094 76.1702C106.695 74.271 114.652 75.2732 122.797 78.3927C128.793 80.5972 134.224 84.0881 138.703 88.6161C139.518 89.4243 140.243 90.2809 140.959 91.1618C141.521 91.865 136.13 98.2414 135.69 98.7667C130.611 104.798 124.525 109.919 117.698 113.904C113.025 116.643 108.076 118.891 102.932 120.612C97.6915 122.284 92.3189 123.517 86.8707 124.297C77.9116 125.735 69.4493 124.911 60.6531 122.972C44.8037 119.472 28.547 113.273 15.206 104.149C13.6341 103.066 12.0052 102.064 10.3763 101.07C8.2831 99.785 6.30395 98.4031 4.15376 97.1585C3.4126 96.714 2.67144 96.2776 1.90584 95.9139C1.46907 95.7109 1.08317 95.4142 0.775994 95.0452C0.468823 94.6763 0.248046 94.2442 0.129602 93.7803C0.0111588 93.3164 -0.0019968 92.8321 0.0910854 92.3625C0.184168 91.8929 0.381165 91.4497 0.667857 91.0649C1.12554 90.498 1.67622 90.0116 2.29678 89.6263C4.01223 88.6209 5.90617 87.9515 7.87586 87.6544C16.1345 86.2481 23.7253 88.9879 30.9333 92.8105C34.7776 94.8471 38.4834 97.3524 42.4336 99.1547C47.1086 101.288 52.4026 101.878 57.4523 101.935C61.1614 101.948 64.8648 101.642 68.5208 101.022C72.5932 100.343 77.0483 99.4941 80.803 97.708C82.2606 97.0309 83.6582 96.2334 84.9812 95.3239C84.6391 95.5745 83.8491 95.4047 83.4663 95.3239C82.831 95.2512 82.1957 95.1865 81.5686 95.0976C79.2684 94.8477 77.0003 94.3629 74.8004 93.651C70.909 92.3179 67.3139 90.2515 64.2123 87.5655C62.9717 86.6251 62.0601 85.3219 61.606 83.8398C61.3291 82.7084 61.2314 80.502 62.1762 79.6211C62.4059 79.4317 62.6807 79.3037 62.9743 79.2494Z" fill="#6CBF6C"/>
<path d="M73.5135 68.6946C73.5135 68.6946 52.1257 66.5206 52.2967 43.9565C52.2967 43.9565 29.842 73.6002 68.6593 96.0917C68.1795 96.1616 67.7094 96.2863 67.2584 96.4634C65.9803 96.7648 64.6859 96.9942 63.3816 97.1504C59.1033 97.6994 54.764 97.563 50.5293 96.7463C44.757 95.6255 39.3457 93.1293 34.7613 89.4727C28.7506 84.6075 23.5054 77.5845 21.1272 70.311C19.915 66.2095 19.3652 61.9433 19.4983 57.6712C19.4354 53.4022 19.8616 49.1401 20.7688 44.9667C21.9393 39.5369 24.4591 34.4835 28.099 30.266C30.1012 28.027 32.449 26.1175 35.0545 24.6088C36.4982 23.7767 38.004 23.0553 39.5585 22.451C40.0146 22.2732 44.7059 20.9155 44.7059 20.8347C44.7059 20.7539 44.2661 17.2625 46.514 15.7109C46.3593 15.8159 45.3086 14.9916 45.1946 14.9027C44.2638 14.2168 43.5239 13.3074 43.0444 12.26C41.5865 8.93029 43.4191 4.26714 47.3611 3.9762C47.9692 3.92404 48.5817 3.99554 49.161 4.18632C50.1868 4.57004 51.0591 5.27405 51.6467 6.19233C52.2342 7.11061 52.5053 8.19345 52.4189 9.27781C56.1247 8.74441 59.8957 8.75249 62.5427 11.8963C66.3707 16.4382 65.6132 25.7807 58.7229 27.0576C58.5192 27.0576 58.8613 28.6739 58.902 28.8921C59.1708 29.9751 60.0097 30.7267 60.531 31.6723C61.5816 33.4502 61.5898 35.5676 61.7608 37.5638C61.9821 39.7447 61.9548 41.9433 61.6794 44.1181C61.2803 47.0922 60.7101 49.7753 61.264 52.7736C62.0133 56.8872 64.2531 60.4351 67.0711 63.4738C68.974 65.4917 71.1407 67.2476 73.5135 68.6946Z" fill="#6CBF6C"/>
<path d="M88.3449 73.3982C88.3449 73.3982 96.799 73.2608 100.823 72.1536C100.823 72.1536 111.492 70.7797 117.731 72.1536C117.731 72.1536 124.67 55.7881 119.954 38.865C118.893 35.5115 117.239 32.3724 115.067 29.5953C110.449 23.437 102.622 16.4544 94.6163 15.727C92.5153 15.5469 90.3988 15.6969 88.3449 16.1715C88.3449 16.1715 92.3684 5.57639 84.5984 1.44663C84.5984 1.44663 77.6103 -3.12763 70.5 3.9762C68.9995 5.93226 68.1382 8.29716 68.0319 10.7532C67.9256 13.2092 68.5794 15.6386 69.9054 17.7151C71.4184 19.3983 73.4038 20.5944 75.6067 21.1499C74.4664 20.8347 73.1633 28.0678 73.0981 28.5931C72.6339 34.6302 75.2239 40.4086 74.1162 46.5588C73.533 49.3102 72.5537 51.9639 71.2086 54.4385C70.8014 55.2466 68.1055 60.7341 67.0141 60.4674C67.0141 60.4674 73.6683 62.0838 80.86 47.2619C81.8699 45.1687 83.4418 42.8412 85.6327 41.8472C92.3765 38.8084 94.2416 48.5873 94.2986 52.9434C94.3548 56.1887 93.9824 59.4274 93.191 62.5768C92.7352 64.4104 92.1249 66.2028 91.3666 67.9349C91.0408 68.6946 89.1431 73.382 88.3449 73.3982Z" fill="#6CBF6C"/>
</g>
<defs>
<clipPath id="clip0_1_708">
<rect width="141" height="125" fill="white"/>
</clipPath>
</defs>
</svg>
